Coda.ufo
<glyph name="ampersand" format="1">
  <advance width="1386"/>
  <unicode hex="0026"/>
  <outline>
    <contour>
      <point x="1179" y="250" type="curve" smooth="yes"/>
      <point x="1179" y="-9"/>
      <point x="895" y="-23"/>
      <point x="606" y="-23" type="curve" smooth="yes"/>
      <point x="242" y="-23"/>
      <point x="112" y="47"/>
      <point x="112" y="402" type="curve" smooth="yes"/>
      <point x="112" y="644"/>
      <point x="188" y="797"/>
      <point x="326" y="825" type="curve"/>
      <point x="224" y="857"/>
      <point x="175" y="972"/>
      <point x="175" y="1183" type="curve"/>
      <point x="187" y="1515"/>
      <point x="392" y="1522"/>
      <point x="648" y="1522" type="curve" smooth="yes"/>
      <point x="982" y="1522"/>
      <point x="1139" y="1508"/>
      <point x="1154" y="1322" type="curve"/>
      <point x="1159" y="1284"/>
      <point x="1161" y="1246"/>
      <point x="1161" y="1208" type="curve"/>
      <point x="1009" y="1183" type="line"/>
      <point x="999" y="1370"/>
      <point x="916" y="1355"/>
      <point x="707" y="1357" type="curve"/>
      <point x="382" y="1355"/>
      <point x="372" y="1355"/>
      <point x="372" y="1089" type="curve" smooth="yes"/>
      <point x="372" y="888"/>
      <point x="425" y="853"/>
      <point x="515" y="853" type="curve" smooth="yes"/>
      <point x="996" y="853" type="line"/>
      <point x="996" y="962" type="line"/>
      <point x="1179" y="962" type="line"/>
      <point x="1179" y="853" type="line"/>
      <point x="1312" y="853" type="line"/>
      <point x="1312" y="728" type="line"/>
      <point x="1178" y="727" type="line"/>
      <point x="1178" y="727"/>
      <point x="1179" y="359"/>
    </contour>
    <contour>
      <point x="996" y="236" type="curve"/>
      <point x="996" y="728" type="line"/>
      <point x="459" y="728" type="line" smooth="yes"/>
      <point x="311" y="728"/>
      <point x="308" y="607"/>
      <point x="308" y="362" type="curve" smooth="yes"/>
      <point x="308" y="186"/>
      <point x="317" y="138"/>
      <point x="642" y="138" type="curve" smooth="yes"/>
      <point x="906" y="138"/>
      <point x="987" y="169"/>
    </contour>
  </outline>
</glyph>
<glyph name="parenright" format="1">
  <advance width="649"/>
  <unicode hex="0029"/>
  <outline>
    <contour>
      <point x="534" y="729" type="curve" smooth="yes"/>
      <point x="534" y="727" type="line" smooth="yes"/>
      <point x="534" y="217"/>
      <point x="401" y="-195"/>
      <point x="2" y="-229" type="curve"/>
      <point x="-13" y="-92" type="line"/>
      <point x="255" y="-51"/>
      <point x="343" y="261"/>
      <point x="343" y="728" type="curve" smooth="yes"/>
      <point x="343" y="1195"/>
      <point x="255" y="1507"/>
      <point x="-13" y="1548" type="curve"/>
      <point x="2" y="1685" type="line"/>
      <point x="401" y="1651"/>
      <point x="534" y="1239"/>
    </contour>
  </outline>
</glyph>
<glyph name="hyphen" format="1">
  <advance width="847"/>
  <unicode hex="002D"/>
  <outline>
    <contour>
      <point x="132" y="538" type="line"/>
      <point x="132" y="677" type="line"/>
      <point x="719" y="677" type="line"/>
      <point x="719" y="538" type="line"/>
    </contour>
  </outline>
</glyph>
<glyph name="eight" format="1">
  <advance width="1223"/>
  <unicode hex="0038"/>
  <outline>
    <contour>
      <point x="633" y="-16" type="curve" smooth="yes"/>
      <point x="635" y="-16" type="line" smooth="yes"/>
      <point x="282" y="-16"/>
      <point x="144" y="53"/>
      <point x="144" y="383" type="curve" smooth="yes"/>
      <point x="144" y="620"/>
      <point x="215" y="722"/>
      <point x="326" y="798" type="curve"/>
      <point x="250" y="854"/>
      <point x="217" y="962"/>
      <point x="217" y="1132" type="curve" smooth="yes"/>
      <point x="217" y="1419"/>
      <point x="347" y="1506"/>
      <point x="634" y="1506" type="curve" smooth="yes"/>
      <point x="921" y="1506"/>
      <point x="1051" y="1419"/>
      <point x="1051" y="1132" type="curve" smooth="yes"/>
      <point x="1051" y="962"/>
      <point x="1018" y="854"/>
      <point x="942" y="798" type="curve"/>
      <point x="1053" y="722"/>
      <point x="1124" y="620"/>
      <point x="1124" y="383" type="curve" smooth="yes"/>
      <point x="1124" y="53"/>
      <point x="986" y="-16"/>
    </contour>
    <contour>
      <point x="633" y="711" type="curve" smooth="yes"/>
      <point x="635" y="711" type="line" smooth="yes"/>
      <point x="396" y="711"/>
      <point x="323" y="709"/>
      <point x="323" y="493" type="curve" smooth="yes"/>
      <point x="323" y="428"/>
      <point x="320" y="372"/>
      <point x="320" y="320" type="curve" smooth="yes"/>
      <point x="320" y="198"/>
      <point x="356" y="127"/>
      <point x="634" y="127" type="curve" smooth="yes"/>
      <point x="912" y="127"/>
      <point x="948" y="198"/>
      <point x="948" y="320" type="curve" smooth="yes"/>
      <point x="948" y="372"/>
      <point x="945" y="428"/>
      <point x="945" y="493" type="curve" smooth="yes"/>
      <point x="945" y="709"/>
      <point x="872" y="711"/>
    </contour>
    <contour>
      <point x="633" y="1358" type="curve" smooth="yes"/>
      <point x="635" y="1358" type="line" smooth="yes"/>
      <point x="397" y="1358"/>
      <point x="386" y="1337"/>
      <point x="386" y="1141" type="curve" smooth="yes"/>
      <point x="386" y="1012"/>
      <point x="400" y="895"/>
      <point x="463" y="855" type="curve"/>
      <point x="633" y="855" type="line"/>
      <point x="805" y="855" type="line"/>
      <point x="868" y="895"/>
      <point x="882" y="1012"/>
      <point x="882" y="1141" type="curve" smooth="yes"/>
      <point x="882" y="1337"/>
      <point x="871" y="1358"/>
    </contour>
  </outline>
</glyph>
<glyph name="semicolon" format="1">
  <advance width="547"/>
  <unicode hex="003B"/>
  <outline>
    <contour>
      <point x="423" y="1079" type="curve" smooth="yes"/>
      <point x="423" y="991"/>
      <point x="371" y="925"/>
      <point x="283" y="925" type="curve" smooth="yes"/>
      <point x="199" y="925"/>
      <point x="143" y="995"/>
      <point x="143" y="1079" type="curve" smooth="yes"/>
      <point x="143" y="1165"/>
      <point x="194" y="1233"/>
      <point x="283" y="1233" type="curve" smooth="yes"/>
      <point x="365" y="1233"/>
      <point x="423" y="1163"/>
    </contour>
    <contour>
      <point x="111" y="-29" type="line"/>
      <point x="199" y="-29"/>
      <point x="283" y="41"/>
      <point x="283" y="130" type="curve"/>
      <point x="200" y="130"/>
      <point x="138" y="199"/>
      <point x="138" y="285" type="curve" smooth="yes"/>
      <point x="138" y="369"/>
      <point x="193" y="439"/>
      <point x="285" y="439" type="curve" smooth="yes"/>
      <point x="372" y="439"/>
      <point x="427" y="354"/>
      <point x="427" y="260" type="curve" smooth="yes"/>
      <point x="427" y="90"/>
      <point x="309" y="-101"/>
      <point x="170" y="-101" type="curve" smooth="yes"/>
      <point x="141" y="-101"/>
      <point x="122" y="-100"/>
      <point x="111" y="-97" type="curve"/>
    </contour>
  </outline>
</glyph>
<glyph name="B" format="1">
  <advance width="1320"/>
  <unicode hex="0042"/>
  <outline>
    <contour>
      <point x="1216" y="429" type="curve"/>
      <point x="1207" y="25"/>
      <point x="1132" y="0"/>
      <point x="700" y="0" type="curve" smooth="yes"/>
      <point x="166" y="0" type="line"/>
      <point x="166" y="1490" type="line"/>
      <point x="732" y="1490" type="line" smooth="yes"/>
      <point x="1015" y="1490"/>
      <point x="1160" y="1442"/>
      <point x="1162" y="1212" type="curve" smooth="yes"/>
      <point x="1163" y="1104" type="line"/>
      <point x="1163" y="890"/>
      <point x="1131" y="834"/>
      <point x="951" y="803" type="curve"/>
      <point x="1185" y="779"/>
      <point x="1216" y="624"/>
    </contour>
    <contour>
      <point x="965" y="1147" type="line" smooth="yes"/>
      <point x="965" y="1328"/>
      <point x="969" y="1338"/>
      <point x="636" y="1338" type="curve" smooth="yes"/>
      <point x="367" y="1338" type="line"/>
      <point x="367" y="860" type="line"/>
      <point x="568" y="860" type="line" smooth="yes"/>
      <point x="924" y="860"/>
      <point x="965" y="905"/>
      <point x="965" y="989" type="curve" smooth="yes"/>
    </contour>
    <contour>
      <point x="1018" y="477" type="line" smooth="yes"/>
      <point x="1015" y="701"/>
      <point x="1031" y="729"/>
      <point x="601" y="729" type="curve" smooth="yes"/>
      <point x="367" y="729" type="line"/>
      <point x="367" y="151" type="line"/>
      <point x="749" y="151" type="line" smooth="yes"/>
      <point x="982" y="151"/>
      <point x="1022" y="201"/>
      <point x="1020" y="344" type="curve" smooth="yes"/>
    </contour>
  </outline>
</glyph>
<glyph name="G" format="1">
  <advance width="1368"/>
  <unicode hex="0047"/>
  <outline>
    <contour>
      <point x="1236" y="745" type="line"/>
      <point x="1236" y="106" type="line"/>
      <point x="1144" y="22"/>
      <point x="948" y="-24"/>
      <point x="661" y="-24" type="curve" smooth="yes"/>
      <point x="162" y="-24"/>
      <point x="132" y="127"/>
      <point x="132" y="744" type="curve" smooth="yes"/>
      <point x="132" y="1349"/>
      <point x="176" y="1513"/>
      <point x="706" y="1513" type="curve" smooth="yes"/>
      <point x="956" y="1513"/>
      <point x="1212" y="1521"/>
      <point x="1212" y="1146" type="curve" smooth="yes"/>
      <point x="1212" y="1129"/>
      <point x="1211" y="1112"/>
      <point x="1210" y="1096" type="curve"/>
      <point x="1031" y="1062" type="line"/>
      <point x="1020" y="1259" type="line"/>
      <point x="1017" y="1348"/>
      <point x="927" y="1360"/>
      <point x="678" y="1360" type="curve" smooth="yes"/>
      <point x="410" y="1360"/>
      <point x="356" y="1319"/>
      <point x="345" y="1192" type="curve"/>
      <point x="339" y="1055"/>
      <point x="336" y="914"/>
      <point x="336" y="772" type="curve" smooth="yes"/>
      <point x="336" y="628"/>
      <point x="339" y="488"/>
      <point x="345" y="352" type="curve" smooth="yes"/>
      <point x="353" y="167"/>
      <point x="350" y="130"/>
      <point x="672" y="130" type="curve" smooth="yes"/>
      <point x="897" y="130"/>
      <point x="1026" y="145"/>
      <point x="1051" y="176" type="curve"/>
      <point x="1051" y="176"/>
      <point x="1050" y="278"/>
      <point x="1050" y="594" type="curve"/>
      <point x="798" y="594" type="line"/>
      <point x="781" y="745" type="line"/>
    </contour>
    <contour>
      <point x="684" y="1490" type="move" name="top"/>
    </contour>
    <contour>
      <point x="684" y="0" type="move" name="bottom"/>
    </contour>
  </outline>
</glyph>
<glyph name="I" format="1">
  <advance width="547"/>
  <unicode hex="0049"/>
  <outline>
    <contour>
      <point x="375" y="0" type="line"/>
      <point x="172" y="0" type="line"/>
      <point x="172" y="1490" type="line"/>
      <point x="375" y="1490" type="line"/>
    </contour>
    <contour>
      <point x="274" y="1490" type="move" name="top"/>
    </contour>
    <contour>
      <point x="492" y="10" type="move" name="ogonek"/>
    </contour>
  </outline>
</glyph>
<glyph name="M" format="1">
  <advance width="1741"/>
  <unicode hex="004D"/>
  <outline>
    <contour>
      <point x="148" y="0" type="line"/>
      <point x="222" y="1499" type="line"/>
      <point x="442" y="1499" type="line"/>
      <point x="872" y="326" type="line"/>
      <point x="1294" y="1499" type="line"/>
      <point x="1514" y="1499" type="line"/>
      <point x="1593" y="0" type="line"/>
      <point x="1395" y="0" type="line"/>
      <point x="1343" y="1201" type="line"/>
      <point x="929" y="0" type="line"/>
      <point x="813" y="0" type="line"/>
      <point x="379" y="1192" type="line"/>
      <point x="335" y="0" type="line"/>
    </contour>
  </outline>
</glyph>
<glyph name="N" format="1">
  <advance width="1431"/>
  <unicode hex="004E"/>
  <outline>
    <contour>
      <point x="1265" y="0" type="line"/>
      <point x="1054" y="0" type="line"/>
      <point x="344" y="1177" type="line"/>
      <point x="344" y="0" type="line"/>
      <point x="166" y="0" type="line"/>
      <point x="166" y="1490" type="line"/>
      <point x="371" y="1490" type="line"/>
      <point x="1087" y="297" type="line"/>
      <point x="1087" y="1490" type="line"/>
      <point x="1265" y="1490" type="line"/>
    </contour>
    <contour>
      <point x="716" y="1490" type="move" name="top"/>
    </contour>
    <contour>
      <point x="716" y="0" type="move" name="bottom"/>
    </contour>
  </outline>
</glyph>
<glyph name="P" format="1">
  <advance width="1265"/>
  <unicode hex="0050"/>
  <outline>
    <contour>
      <point x="1172" y="1004" type="curve"/>
      <point x="1172" y="575"/>
      <point x="1015" y="521"/>
      <point x="765" y="521" type="curve" smooth="yes"/>
      <point x="368" y="521" type="line"/>
      <point x="368" y="0" type="line"/>
      <point x="166" y="0" type="line"/>
      <point x="166" y="1490" type="line"/>
      <point x="706" y="1490" type="line" smooth="yes"/>
      <point x="1059" y="1490"/>
      <point x="1170" y="1414"/>
    </contour>
    <contour>
      <point x="970" y="1015" type="curve" smooth="yes"/>
      <point x="965" y="1281"/>
      <point x="944" y="1340"/>
      <point x="762" y="1340" type="curve" smooth="yes"/>
      <point x="368" y="1340" type="line"/>
      <point x="368" y="672" type="line"/>
      <point x="721" y="672" type="line" smooth="yes"/>
      <point x="930" y="672"/>
      <point x="971" y="743"/>
      <point x="971" y="906" type="curve" smooth="yes"/>
      <point x="971" y="939"/>
      <point x="970" y="975"/>
    </contour>
  </outline>
</glyph>
<glyph name="T" format="1">
  <advance width="979"/>
  <unicode hex="0054"/>
  <outline>
    <contour>
      <point x="976" y="1336" type="line"/>
      <point x="587" y="1336" type="line"/>
      <point x="587" y="0" type="line"/>
      <point x="384" y="0" type="line"/>
      <point x="384" y="1336" type="line"/>
      <point x="3" y="1336" type="line"/>
      <point x="3" y="1490" type="line"/>
      <point x="976" y="1490" type="line"/>
    </contour>
    <contour>
      <point x="490" y="1490" type="move" name="top"/>
    </contour>
    <contour>
      <point x="490" y="0" type="move" name="bottom"/>
    </contour>
    <contour>
      <point x="490" y="745" type="move" name="center"/>
    </contour>
  </outline>
</glyph>
<glyph name="U" format="1">
  <advance width="1429"/>
  <unicode hex="0055"/>
  <outline>
    <contour>
      <point x="1277" y="1490" type="line"/>
      <point x="1277" y="557" type="line" smooth="yes"/>
      <point x="1277" y="88"/>
      <point x="1156" y="-24"/>
      <point x="713" y="-24" type="curve" smooth="yes"/>
      <point x="290" y="-24"/>
      <point x="152" y="69"/>
      <point x="152" y="557" type="curve" smooth="yes"/>
      <point x="152" y="1490" type="line"/>
      <point x="355" y="1490" type="line"/>
      <point x="355" y="531" type="line" smooth="yes"/>
      <point x="355" y="177"/>
      <point x="356" y="130"/>
      <point x="714" y="130" type="curve" smooth="yes"/>
      <point x="1041" y="130"/>
      <point x="1075" y="188"/>
      <point x="1075" y="435" type="curve" smooth="yes"/>
      <point x="1074" y="1490" type="line"/>
    </contour>
    <contour>
      <point x="715" y="1490" type="move" name="top"/>
    </contour>
    <contour>
      <point x="1286" y="10" type="move" name="ogonek"/>
    </contour>
  </outline>
</glyph>
<glyph name="bracketleft" format="1">
  <advance width="608"/>
  <unicode hex="005B"/>
  <outline>
    <contour>
      <point x="619" y="-257" type="line"/>
      <point x="173" y="-257" type="line"/>
      <point x="173" y="1653" type="line"/>
      <point x="619" y="1653" type="line"/>
      <point x="619" y="1502" type="line"/>
      <point x="364" y="1502" type="line"/>
      <point x="364" y="-105" type="line"/>
      <point x="619" y="-105" type="line"/>
    </contour>
  </outline>
</glyph>
<glyph name="a" format="1">
  <advance width="1110"/>
  <unicode hex="0061"/>
  <outline>
    <contour>
      <point x="960" y="0" type="line"/>
      <point x="804" y="0" type="line"/>
      <point x="772" y="157" type="line"/>
      <point x="729" y="10"/>
      <point x="617" y="-15"/>
      <point x="434" y="-15" type="curve" smooth="yes"/>
      <point x="168" y="-15"/>
      <point x="101" y="86"/>
      <point x="101" y="354" type="curve" smooth="yes"/>
      <point x="101" y="577"/>
      <point x="370" y="604"/>
      <point x="763" y="604" type="curve"/>
      <point x="763" y="901" type="line" smooth="yes"/>
      <point x="763" y="970"/>
      <point x="707" y="991"/>
      <point x="544" y="991" type="curve" smooth="yes"/>
      <point x="304" y="991"/>
      <point x="323" y="964"/>
      <point x="318" y="824" type="curve"/>
      <point x="165" y="830" type="line"/>
      <point x="163" y="846"/>
      <point x="163" y="862"/>
      <point x="163" y="877" type="curve" smooth="yes"/>
      <point x="163" y="1104"/>
      <point x="322" y="1128"/>
      <point x="557" y="1128" type="curve" smooth="yes"/>
      <point x="869" y="1128"/>
      <point x="960" y="1037"/>
      <point x="960" y="726" type="curve" smooth="yes"/>
    </contour>
    <contour>
      <point x="763" y="314" type="curve"/>
      <point x="763" y="485" type="line"/>
      <point x="361" y="485"/>
      <point x="283" y="443"/>
      <point x="283" y="354" type="curve" smooth="yes"/>
      <point x="283" y="157"/>
      <point x="281" y="122"/>
      <point x="461" y="122" type="curve" smooth="yes"/>
      <point x="687" y="122"/>
      <point x="756" y="203"/>
    </contour>
    <contour>
      <point x="555" y="1097" type="move" name="top"/>
    </contour>
    <contour>
      <point x="999" y="10" type="move" name="ogonek"/>
    </contour>
  </outline>
</glyph>
<glyph name="n" format="1">
  <advance width="1171"/>
  <unicode hex="006E"/>
  <outline>
    <contour>
      <point x="1021" y="0" type="line"/>
      <point x="824" y="0" type="line"/>
      <point x="824" y="664" type="line" smooth="yes"/>
      <point x="824" y="971"/>
      <point x="813" y="990"/>
      <point x="646" y="990" type="curve" smooth="yes"/>
      <point x="390" y="990"/>
      <point x="344" y="924"/>
      <point x="344" y="780" type="curve" smooth="yes"/>
      <point x="344" y="723"/>
      <point x="350" y="660"/>
      <point x="350" y="585" type="curve" smooth="yes"/>
      <point x="350" y="0" type="line"/>
      <point x="153" y="0" type="line"/>
      <point x="153" y="1097" type="line"/>
      <point x="333" y="1097" type="line"/>
      <point x="352" y="974" type="line"/>
      <point x="389" y="1091"/>
      <point x="533" y="1128"/>
      <point x="679" y="1128" type="curve" smooth="yes"/>
      <point x="987" y="1128"/>
      <point x="1021" y="974"/>
      <point x="1021" y="609" type="curve" smooth="yes"/>
    </contour>
    <contour>
      <point x="586" y="1097" type="move" name="top"/>
    </contour>
    <contour>
      <point x="586" y="0" type="move" name="bottom"/>
    </contour>
  </outline>
</glyph>
<glyph name="o" format="1">
  <advance width="1172"/>
  <unicode hex="006F"/>
  <outline>
    <contour>
      <point x="587" y="123" type="curve"/>
      <point x="764" y="127"/>
      <point x="840" y="140"/>
      <point x="840" y="215" type="curve"/>
      <point x="848" y="319"/>
      <point x="851" y="437"/>
      <point x="851" y="546" type="curve" smooth="yes"/>
      <point x="851" y="667"/>
      <point x="841" y="782"/>
      <point x="841" y="895" type="curve" smooth="yes"/>
      <point x="841" y="989"/>
      <point x="705" y="989"/>
      <point x="586" y="989" type="curve" smooth="yes"/>
      <point x="467" y="989"/>
      <point x="331" y="989"/>
      <point x="331" y="895" type="curve" smooth="yes"/>
      <point x="331" y="782"/>
      <point x="321" y="667"/>
      <point x="321" y="546" type="curve" smooth="yes"/>
      <point x="321" y="437"/>
      <point x="324" y="319"/>
      <point x="332" y="215" type="curve"/>
      <point x="332" y="142"/>
      <point x="410" y="123"/>
    </contour>
    <contour>
      <point x="585" y="-15" type="curve" smooth="yes"/>
      <point x="150" y="-15"/>
      <point x="124" y="101"/>
      <point x="124" y="558" type="curve" smooth="yes"/>
      <point x="124" y="1035"/>
      <point x="170" y="1128"/>
      <point x="586" y="1128" type="curve" smooth="yes"/>
      <point x="1002" y="1128"/>
      <point x="1048" y="1035"/>
      <point x="1048" y="558" type="curve" smooth="yes"/>
      <point x="1048" y="100"/>
      <point x="1021" y="-15"/>
    </contour>
    <contour>
      <point x="586" y="1097" type="move" name="top"/>
    </contour>
  </outline>
</glyph>
<glyph name="x" format="1">
  <advance width="1013"/>
  <unicode hex="0078"/>
  <outline>
    <contour>
      <point x="959" y="0" type="line"/>
      <point x="752" y="0" type="line"/>
      <point x="507" y="430" type="line"/>
      <point x="259" y="0" type="line"/>
      <point x="54" y="0" type="line"/>
      <point x="400" y="565" type="line"/>
      <point x="62" y="1097" type="line"/>
      <point x="268" y="1097" type="line"/>
      <point x="507" y="688" type="line"/>
      <point x="747" y="1097" type="line"/>
      <point x="950" y="1097" type="line"/>
      <point x="617" y="563" type="line"/>
    </contour>
  </outline>
</glyph>
<glyph name="braceright" format="1">
  <advance width="648"/>
  <unicode hex="007D"/>
  <outline>
    <contour>
      <point x="-12" y="-172" type="curve"/>
      <point x="-12" y="-8" type="line"/>
      <point x="114" y="-8"/>
      <point x="176" y="32"/>
      <point x="211" y="171" type="curve"/>
      <point x="269" y="356"/>
      <point x="217" y="685"/>
      <point x="377" y="758" type="curve"/>
      <point x="281" y="806"/>
      <point x="260" y="951"/>
      <point x="247" y="1091" type="curve"/>
      <point x="225" y="1402"/>
      <point x="194" y="1530"/>
      <point x="-11" y="1530" type="curve"/>
      <point x="-11" y="1694" type="line"/>
      <point x="300" y="1694"/>
      <point x="378" y="1517"/>
      <point x="425" y="1207" type="curve" smooth="yes"/>
      <point x="444" y="1082" type="line" smooth="yes"/>
      <point x="466" y="934"/>
      <point x="494" y="858"/>
      <point x="585" y="858" type="curve"/>
      <point x="585" y="664" type="line"/>
      <point x="486" y="664"/>
      <point x="458" y="587"/>
      <point x="442" y="442" type="curve"/>
      <point x="430" y="304" type="line"/>
      <point x="403" y="54"/>
      <point x="356" y="-172"/>
    </contour>
  </outline>
</glyph>
<glyph name="brokenbar" format="1">
  <advance width="510"/>
  <unicode hex="00A6"/>
  <outline>
    <contour>
      <point x="162" y="563" type="line"/>
      <point x="349" y="563" type="line"/>
      <point x="349" y="-249" type="line"/>
      <point x="162" y="-249" type="line"/>
    </contour>
    <contour>
      <point x="162" y="1631" type="line"/>
      <point x="349" y="1631" type="line"/>
      <point x="349" y="819" type="line"/>
      <point x="162" y="819" type="line"/>
    </contour>
  </outline>
</glyph>
<glyph name="section" format="1">
  <advance width="1062"/>
  <unicode hex="00A7"/>
  <outline>
    <contour>
      <point x="322" y="775" type="curve" smooth="yes"/>
      <point x="322" y="569"/>
      <point x="359" y="600"/>
      <point x="711" y="543" type="curve"/>
      <point x="732" y="559"/>
      <point x="743" y="611"/>
      <point x="743" y="685" type="curve" smooth="yes"/>
      <point x="743" y="814"/>
      <point x="719" y="849"/>
      <point x="652" y="870" type="curve" smooth="yes"/>
      <point x="488" y="920"/>
      <point x="377" y="930"/>
      <point x="347" y="939" type="curve"/>
      <point x="331" y="878"/>
      <point x="322" y="824"/>
    </contour>
    <contour>
      <point x="131" y="210" type="curve"/>
      <point x="303" y="210" type="line"/>
      <point x="303" y="-4"/>
      <point x="352" y="-10"/>
      <point x="548" y="-10" type="curve" smooth="yes"/>
      <point x="716" y="-10"/>
      <point x="744" y="18"/>
      <point x="744" y="198" type="curve" smooth="yes"/>
      <point x="744" y="331"/>
      <point x="711" y="390"/>
      <point x="602" y="403" type="curve" smooth="yes"/>
      <point x="244" y="444"/>
      <point x="146" y="482"/>
      <point x="146" y="762" type="curve" smooth="yes"/>
      <point x="146" y="866"/>
      <point x="178" y="943"/>
      <point x="242" y="993" type="curve"/>
      <point x="179" y="1050"/>
      <point x="148" y="1146"/>
      <point x="148" y="1282" type="curve" smooth="yes"/>
      <point x="148" y="1548"/>
      <point x="252" y="1613"/>
      <point x="535" y="1613" type="curve" smooth="yes"/>
      <point x="822" y="1613"/>
      <point x="925" y="1541"/>
      <point x="925" y="1263" type="curve"/>
      <point x="754" y="1263" type="line"/>
      <point x="754" y="1453"/>
      <point x="720" y="1482"/>
      <point x="533" y="1482" type="curve" smooth="yes"/>
      <point x="374" y="1482"/>
      <point x="320" y="1478"/>
      <point x="320" y="1297" type="curve" smooth="yes"/>
      <point x="320" y="1277" type="line" smooth="yes"/>
      <point x="320" y="1248"/>
      <point x="319" y="1224"/>
      <point x="319" y="1203" type="curve" smooth="yes"/>
      <point x="319" y="1096"/>
      <point x="341" y="1090"/>
      <point x="615" y="1043" type="curve" smooth="yes"/>
      <point x="826" y="1006"/>
      <point x="914" y="961"/>
      <point x="920" y="733" type="curve"/>
      <point x="920" y="620"/>
      <point x="887" y="539"/>
      <point x="818" y="489" type="curve"/>
      <point x="884" y="432"/>
      <point x="917" y="334"/>
      <point x="917" y="195" type="curve" smooth="yes"/>
      <point x="917" y="-80"/>
      <point x="803" y="-140"/>
      <point x="524" y="-140" type="curve" smooth="yes"/>
      <point x="242" y="-140"/>
      <point x="131" y="-74"/>
    </contour>
  </outline>
</glyph>
<glyph name="uni00B2" format="1">
  <advance width="896"/>
  <unicode hex="00B2"/>
  <outline>
    <contour>
      <point x="804" y="248" type="line"/>
      <point x="110" y="248" type="line"/>
      <point x="110" y="495"/>
      <point x="149" y="583"/>
      <point x="287" y="680" type="curve"/>
      <point x="553" y="862"/>
      <point x="669" y="855"/>
      <point x="669" y="1125" type="curve" smooth="yes"/>
      <point x="669" y="1277"/>
      <point x="664" y="1342"/>
      <point x="475" y="1342" type="curve" smooth="yes"/>
      <point x="310" y="1342"/>
      <point x="255" y="1319"/>
      <point x="241" y="1147" type="curve"/>
      <point x="122" y="1175" type="line"/>
      <point x="121" y="1182"/>
      <point x="121" y="1189"/>
      <point x="121" y="1196" type="curve" smooth="yes"/>
      <point x="121" y="1386"/>
      <point x="246" y="1454"/>
      <point x="463" y="1454" type="curve" smooth="yes"/>
      <point x="713" y="1454"/>
      <point x="819" y="1399"/>
      <point x="819" y="1125" type="curve" smooth="yes"/>
      <point x="819" y="899"/>
      <point x="743" y="808"/>
      <point x="577" y="719" type="curve"/>
      <point x="385" y="607"/>
      <point x="259" y="561"/>
      <point x="255" y="359" type="curve"/>
      <point x="804" y="359" type="line"/>
    </contour>
  </outline>
</glyph>
<glyph name="acute" format="1">
  <advance width="670"/>
  <unicode hex="00B4"/>
  <outline>
    <contour>
      <point x="405" y="1605" type="curve"/>
      <point x="428" y="1625"/>
      <point x="457" y="1640"/>
      <point x="489" y="1640" type="curve" smooth="yes"/>
      <point x="555" y="1640"/>
      <point x="592" y="1591"/>
      <point x="592" y="1540" type="curve" smooth="yes"/>
      <point x="592" y="1501"/>
      <point x="570" y="1457"/>
      <point x="521" y="1436" type="curve" smooth="yes"/>
      <point x="496" y="1425"/>
      <point x="126" y="1288"/>
      <point x="126" y="1287" type="curve" smooth="yes"/>
      <point x="109" y="1308" type="line"/>
      <point x="109" y="1308"/>
      <point x="366" y="1574"/>
    </contour>
    <contour>
      <point x="350.5" y="1097" type="move" name="_top"/>
    </contour>
  </outline>
</glyph>
<glyph name="paragraph" format="1">
  <advance width="1060"/>
  <unicode hex="00B6"/>
  <outline>
    <contour>
      <point x="417" y="0" type="line"/>
      <point x="417" y="845" type="line"/>
      <point x="190" y="845"/>
      <point x="60" y="955"/>
      <point x="60" y="1190" type="curve" smooth="yes"/>
      <point x="60" y="1445"/>
      <point x="221" y="1521"/>
      <point x="508" y="1521" type="curve" smooth="yes"/>
      <point x="895" y="1521" type="line"/>
      <point x="895" y="0" type="line"/>
      <point x="742" y="0" type="line"/>
      <point x="742" y="844" type="line"/>
      <point x="571" y="844" type="line"/>
      <point x="571" y="0" type="line"/>
    </contour>
  </outline>
</glyph>
<glyph name="uni00B9" format="1">
  <advance width="510"/>
  <unicode hex="00B9"/>
  <outline>
    <contour>
      <point x="364" y="240" type="line"/>
      <point x="214" y="240" type="line"/>
      <point x="214" y="1235" type="line"/>
      <point x="66" y="1235" type="line"/>
      <point x="66" y="1309" type="line"/>
      <point x="148" y="1312"/>
      <point x="208" y="1349"/>
      <point x="240" y="1425" type="curve"/>
      <point x="364" y="1425" type="line"/>
    </contour>
  </outline>
</glyph>
<glyph name="AE" format="1">
  <advance width="1967"/>
  <unicode hex="00C6"/>
  <outline>
    <contour>
      <point x="1856" y="0" type="line"/>
      <point x="981" y="0" type="line"/>
      <point x="981" y="381" type="line"/>
      <point x="433" y="381" type="line"/>
      <point x="211" y="0" type="line"/>
      <point x="20" y="0" type="line"/>
      <point x="906" y="1490" type="line"/>
      <point x="1837" y="1490" type="line"/>
      <point x="1837" y="1323" type="line"/>
      <point x="1182" y="1323" type="line"/>
      <point x="1182" y="864" type="line"/>
      <point x="1726" y="864" type="line"/>
      <point x="1726" y="697" type="line"/>
      <point x="1182" y="697" type="line"/>
      <point x="1182" y="167" type="line"/>
      <point x="1856" y="167" type="line"/>
    </contour>
    <contour>
      <point x="982" y="1342" type="curve"/>
      <point x="787" y="995" type="line"/>
      <point x="518" y="523" type="line"/>
      <point x="981" y="523" type="line"/>
      <point x="981" y="937" type="line" smooth="yes"/>
      <point x="981.333" y="1073.33"/>
      <point x="981.667" y="1208.33"/>
    </contour>
    <contour>
      <point x="984" y="1490" type="move" name="top"/>
    </contour>
  </outline>
</glyph>
<glyph name="eth" format="1">
  <advance width="1206"/>
  <unicode hex="00F0"/>
  <outline>
    <contour>
      <point x="984" y="1587" type="line"/>
      <point x="1044" y="1527" type="line"/>
      <point x="886" y="1369" type="line"/>
      <point x="1074" y="1238"/>
      <point x="1074" y="979"/>
      <point x="1074" y="452" type="curve" smooth="yes"/>
      <point x="1074" y="58"/>
      <point x="965" y="-24"/>
      <point x="606" y="-24" type="curve" smooth="yes"/>
      <point x="193" y="-24"/>
      <point x="97" y="60"/>
      <point x="99" y="391" type="curve" smooth="yes"/>
      <point x="100" y="599" type="line" smooth="yes"/>
      <point x="101" y="853"/>
      <point x="204" y="966"/>
      <point x="511" y="966" type="curve" smooth="yes"/>
      <point x="735" y="966"/>
      <point x="857" y="916"/>
      <point x="876" y="816" type="curve"/>
      <point x="863" y="1061"/>
      <point x="844" y="1190"/>
      <point x="779" y="1262" type="curve"/>
      <point x="622" y="1105" type="line"/>
      <point x="562" y="1165" type="line"/>
      <point x="709" y="1312" type="line"/>
      <point x="623" y="1351"/>
      <point x="492" y="1359"/>
      <point x="287" y="1378" type="curve"/>
      <point x="305" y="1497" type="line"/>
      <point x="534" y="1483"/>
      <point x="695" y="1460"/>
      <point x="808" y="1411" type="curve"/>
    </contour>
    <contour>
      <point x="606" y="838" type="curve" smooth="yes"/>
      <point x="318" y="838"/>
      <point x="293" y="824"/>
      <point x="293" y="714" type="curve" smooth="yes"/>
      <point x="292" y="214" type="line" smooth="yes"/>
      <point x="292" y="110"/>
      <point x="334" y="104"/>
      <point x="604" y="104" type="curve" smooth="yes"/>
      <point x="880" y="104"/>
      <point x="876" y="121"/>
      <point x="876" y="212" type="curve" smooth="yes"/>
      <point x="876" y="651" type="line" smooth="yes"/>
      <point x="876" y="776"/>
      <point x="861" y="838"/>
    </contour>
  </outline>
</glyph>
<glyph name="thorn" format="1">
  <advance width="1209"/>
  <unicode hex="00FE"/>
  <outline>
    <contour>
      <point x="1074" y="526" type="curve" smooth="yes"/>
      <point x="1074" y="124"/>
      <point x="1025" y="-24"/>
      <point x="729" y="-24" type="curve" smooth="yes"/>
      <point x="531" y="-24"/>
      <point x="405" y="20"/>
      <point x="363" y="104" type="curve"/>
      <point x="363" y="-385" type="line"/>
      <point x="167" y="-401" type="line"/>
      <point x="167" y="1564" type="line"/>
      <point x="362" y="1579" type="line"/>
      <point x="362" y="1041" type="line"/>
      <point x="395" y="1124"/>
      <point x="509" y="1168"/>
      <point x="710" y="1168" type="curve" smooth="yes"/>
      <point x="1078" y="1168"/>
      <point x="1074" y="910"/>
    </contour>
    <contour>
      <point x="875" y="562" type="curve" smooth="yes"/>
      <point x="875" y="647"/>
      <point x="876" y="715"/>
      <point x="876" y="770" type="curve" smooth="yes"/>
      <point x="876" y="995"/>
      <point x="855" y="1001"/>
      <point x="646" y="1001" type="curve" smooth="yes"/>
      <point x="370" y="1001"/>
      <point x="361" y="981"/>
      <point x="361" y="798" type="curve" smooth="yes"/>
      <point x="361" y="741"/>
      <point x="363" y="677"/>
      <point x="363" y="621" type="curve" smooth="yes"/>
      <point x="363" y="506"/>
      <point x="360" y="420"/>
      <point x="360" y="355" type="curve" smooth="yes"/>
      <point x="360" y="261"/>
      <point x="366" y="211"/>
      <point x="393" y="183" type="curve"/>
      <point x="431" y="151"/>
      <point x="502" y="144"/>
      <point x="625" y="144" type="curve" smooth="yes"/>
      <point x="854" y="144"/>
      <point x="876" y="189"/>
      <point x="876" y="392" type="curve" smooth="yes"/>
      <point x="876" y="440"/>
      <point x="875" y="496"/>
    </contour>
  </outline>
</glyph>
<glyph name="dotlessi" format="1">
  <advance width="533"/>
  <unicode hex="0131"/>
  <outline>
    <contour>
      <point x="364" y="0" type="line"/>
      <point x="167" y="0" type="line"/>
      <point x="167" y="1097" type="line"/>
      <point x="364" y="1097" type="line"/>
    </contour>
    <contour>
      <point x="267" y="1097" type="move" name="top"/>
    </contour>
    <contour>
      <point x="480" y="10" type="move" name="ogonek"/>
    </contour>
  </outline>
</glyph>
<glyph name="Lslash" format="1">
  <advance width="1070"/>
  <unicode hex="0141"/>
  <outline>
    <contour>
      <point x="990" y="0" type="line"/>
      <point x="213" y="0" type="line"/>
      <point x="213" y="610" type="line"/>
      <point x="79" y="540" type="line"/>
      <point x="79" y="733" type="line"/>
      <point x="213" y="803" type="line"/>
      <point x="213" y="1490" type="line"/>
      <point x="416" y="1490" type="line"/>
      <point x="416" y="907" type="line"/>
      <point x="713" y="1060" type="line"/>
      <point x="713" y="867" type="line"/>
      <point x="416" y="714" type="line"/>
      <point x="416" y="171" type="line"/>
      <point x="990" y="171" type="line"/>
    </contour>
  </outline>
</glyph>
<glyph name="lslash" format="1">
  <advance width="682"/>
  <unicode hex="0142"/>
  <outline>
    <contour>
      <point x="583" y="848" type="line"/>
      <point x="421" y="751" type="line"/>
      <point x="421" y="0" type="line"/>
      <point x="225" y="0" type="line"/>
      <point x="225" y="635" type="line"/>
      <point x="71" y="545" type="line"/>
      <point x="71" y="738" type="line"/>
      <point x="225" y="829" type="line"/>
      <point x="225" y="1528" type="line"/>
      <point x="421" y="1544" type="line"/>
      <point x="421" y="945" type="line"/>
      <point x="583" y="1041" type="line"/>
    </contour>
  </outline>
</glyph>
<glyph name="uni0237" format="1">
  <advance width="515"/>
  <unicode hex="0237"/>
  <outline>
    <contour>
      <point x="345" y="1097" type="line"/>
      <point x="345" y="61" type="line" smooth="yes"/>
      <point x="345" y="-200"/>
      <point x="288" y="-302"/>
      <point x="90" y="-302" type="curve" smooth="yes"/>
      <point x="59" y="-302"/>
      <point x="23" y="-299"/>
      <point x="-16" y="-294" type="curve"/>
      <point x="-21" y="-172" type="line"/>
      <point x="60" y="-168"/>
      <point x="148" y="-188"/>
      <point x="148" y="-64" type="curve" smooth="yes"/>
      <point x="148" y="1097" type="line"/>
    </contour>
    <contour>
      <point x="258" y="1097" type="move" name="top"/>
    </contour>
  </outline>
</glyph>
<glyph name="caron" format="1">
  <advance width="801"/>
  <unicode hex="02C7"/>
  <outline>
    <contour>
      <point x="176" y="1806" type="line"/>
      <point x="407" y="1570" type="line"/>
      <point x="638" y="1806" type="line"/>
      <point x="693" y="1752" type="line"/>
      <point x="501" y="1443" type="line"/>
      <point x="475" y="1404"/>
      <point x="443" y="1391"/>
      <point x="407" y="1391" type="curve" smooth="yes"/>
      <point x="371" y="1391"/>
      <point x="339" y="1404"/>
      <point x="313" y="1443" type="curve"/>
      <point x="121" y="1752" type="line"/>
    </contour>
    <contour>
      <point x="407" y="1097" type="move" name="_top"/>
    </contour>
  </outline>
</glyph>
<glyph name="breve" format="1">
  <advance width="743"/>
  <unicode hex="02D8"/>
  <outline>
    <contour>
      <point x="83" y="1748" type="curve"/>
      <point x="225" y="1748" type="line"/>
      <point x="224" y="1745"/>
      <point x="224" y="1741"/>
      <point x="224" y="1736" type="curve" smooth="yes"/>
      <point x="224" y="1615"/>
      <point x="255" y="1574"/>
      <point x="378" y="1574" type="curve" smooth="yes"/>
      <point x="503" y="1574"/>
      <point x="532" y="1616"/>
      <point x="532" y="1748" type="curve"/>
      <point x="674" y="1748" type="line"/>
      <point x="674" y="1518"/>
      <point x="575" y="1448"/>
      <point x="341" y="1448" type="curve" smooth="yes"/>
      <point x="195" y="1448"/>
      <point x="83" y="1526"/>
    </contour>
    <contour>
      <point x="378.5" y="1097" type="move" name="_top"/>
    </contour>
  </outline>
</glyph>
<glyph name="hungarumlaut" format="1">
  <advance width="1126"/>
  <unicode hex="02DD"/>
  <outline>
    <contour>
      <point x="387" y="1605" type="curve"/>
      <point x="410" y="1625"/>
      <point x="439" y="1640"/>
      <point x="471" y="1640" type="curve" smooth="yes"/>
      <point x="537" y="1640"/>
      <point x="574" y="1591"/>
      <point x="574" y="1540" type="curve" smooth="yes"/>
      <point x="574" y="1501"/>
      <point x="552" y="1457"/>
      <point x="503" y="1436" type="curve" smooth="yes"/>
      <point x="478" y="1425"/>
      <point x="108" y="1288"/>
      <point x="108" y="1287" type="curve" smooth="yes"/>
      <point x="91" y="1308" type="line"/>
      <point x="91" y="1308"/>
      <point x="348" y="1574"/>
    </contour>
    <contour>
      <point x="816" y="1605" type="curve"/>
      <point x="839" y="1625"/>
      <point x="868" y="1640"/>
      <point x="900" y="1640" type="curve" smooth="yes"/>
      <point x="966" y="1640"/>
      <point x="1003" y="1591"/>
      <point x="1003" y="1540" type="curve" smooth="yes"/>
      <point x="1003" y="1501"/>
      <point x="981" y="1457"/>
      <point x="932" y="1436" type="curve" smooth="yes"/>
      <point x="907" y="1425"/>
      <point x="537" y="1288"/>
      <point x="537" y="1287" type="curve" smooth="yes"/>
      <point x="520" y="1308" type="line"/>
      <point x="520" y="1308"/>
      <point x="777" y="1574"/>
    </contour>
    <contour>
      <point x="547" y="1097" type="move" name="_top"/>
    </contour>
  </outline>
</glyph>
<glyph name="uni0307" format="1">
  <advance width="447"/>
  <unicode hex="0307"/>
  <outline>
    <contour>
      <point x="128" y="1207" type="line"/>
      <point x="128" y="1283"/>
      <point x="129" y="1359"/>
      <point x="129" y="1435" type="curve"/>
      <point x="325" y="1435" type="line"/>
      <point x="325" y="1359"/>
      <point x="326" y="1283"/>
      <point x="326" y="1207" type="curve"/>
    </contour>
    <contour>
      <point x="227" y="1097" type="move" name="_top"/>
    </contour>
  </outline>
</glyph>
<glyph name="uni0311" format="1">
  <advance width="743"/>
  <unicode hex="0311"/>
  <outline>
    <contour>
      <point x="674" y="1448" type="curve"/>
      <point x="532" y="1448" type="line"/>
      <point x="533" y="1451"/>
      <point x="533" y="1455"/>
      <point x="533" y="1460" type="curve" smooth="yes"/>
      <point x="533" y="1581"/>
      <point x="502" y="1622"/>
      <point x="379" y="1622" type="curve" smooth="yes"/>
      <point x="254" y="1622"/>
      <point x="225" y="1580"/>
      <point x="225" y="1448" type="curve"/>
      <point x="83" y="1448" type="line"/>
      <point x="83" y="1678"/>
      <point x="182" y="1748"/>
      <point x="416" y="1748" type="curve" smooth="yes"/>
      <point x="562" y="1748"/>
      <point x="674" y="1670"/>
    </contour>
  </outline>
</glyph>
<glyph name="uni0326" format="1">
  <advance width="679"/>
  <unicode hex="0326"/>
  <outline>
    <contour>
      <point x="331" y="-140" type="curve" smooth="yes"/>
      <point x="436" y="-140"/>
      <point x="503" y="-225"/>
      <point x="503" y="-356" type="curve" smooth="yes"/>
      <point x="503" y="-528"/>
      <point x="370" y="-691"/>
      <point x="190" y="-691" type="curve"/>
      <point x="190" y="-631" type="line"/>
      <point x="267" y="-628"/>
      <point x="318" y="-558"/>
      <point x="318" y="-466" type="curve"/>
      <point x="223" y="-461"/>
      <point x="176" y="-405"/>
      <point x="176" y="-296" type="curve" smooth="yes"/>
      <point x="176" y="-239"/>
      <point x="234" y="-140"/>
    </contour>
    <contour>
      <point x="339.5" y="0" type="move" name="_bottom"/>
    </contour>
  </outline>
</glyph>
<glyph name="endash" format="1">
  <advance width="1069"/>
  <unicode hex="2013"/>
  <outline>
    <contour>
      <point x="942" y="580" type="line"/>
      <point x="131" y="580" type="line"/>
      <point x="131" y="768" type="line"/>
      <point x="942" y="768" type="line"/>
    </contour>
  </outline>
</glyph>
<glyph name="bullet" format="1">
  <advance width="894"/>
  <unicode hex="2022"/>
  <outline>
    <contour>
      <point x="111" y="662" type="curve" smooth="yes"/>
      <point x="111" y="851"/>
      <point x="236" y="1030"/>
      <point x="459" y="1030" type="curve" smooth="yes"/>
      <point x="676" y="1030"/>
      <point x="792" y="858"/>
      <point x="792" y="664" type="curve" smooth="yes"/>
      <point x="792" y="467"/>
      <point x="672" y="298"/>
      <point x="457" y="298" type="curve" smooth="yes"/>
      <point x="238" y="298"/>
      <point x="111" y="471"/>
    </contour>
  </outline>
</glyph>
<glyph name="guilsinglright" format="1">
  <advance width="729"/>
  <unicode hex="203A"/>
  <outline>
    <contour>
      <point x="650" y="742" type="line"/>
      <point x="650" y="644" type="line"/>
      <point x="175" y="220" type="line"/>
      <point x="80" y="333" type="line"/>
      <point x="501" y="693" type="line"/>
      <point x="80" y="1053" type="line"/>
      <point x="175" y="1166" type="line"/>
    </contour>
  </outline>
</glyph>
<glyph name="uniFB01" format="1">
  <advance width="1227"/>
  <unicode hex="FB01"/>
  <outline>
    <contour>
      <point x="972" y="0" type="line"/>
      <point x="775" y="0" type="line"/>
      <point x="775" y="984" type="line"/>
      <point x="399" y="984" type="line"/>
      <point x="399" y="0" type="line"/>
      <point x="202" y="0" type="line"/>
      <point x="202" y="984" type="line"/>
      <point x="73" y="984" type="line"/>
      <point x="73" y="1097" type="line"/>
      <point x="202" y="1097" type="line"/>
      <point x="202" y="1416"/>
      <point x="211" y="1522"/>
      <point x="433" y="1522" type="curve" smooth="yes"/>
      <point x="484" y="1522"/>
      <point x="540" y="1517"/>
      <point x="603" y="1505" type="curve"/>
      <point x="603" y="1362" type="line"/>
      <point x="567" y="1364"/>
      <point x="532" y="1365"/>
      <point x="499" y="1365" type="curve" smooth="yes"/>
      <point x="408" y="1365"/>
      <point x="398" y="1372"/>
      <point x="398" y="1235" type="curve" smooth="yes"/>
      <point x="398" y="1200"/>
      <point x="399" y="1155"/>
      <point x="399" y="1097" type="curve"/>
      <point x="972" y="1097" type="line"/>
    </contour>
    <contour>
      <point x="972" y="1521" type="line"/>
      <point x="972" y="1348" type="line"/>
      <point x="775" y="1348" type="line"/>
      <point x="775" y="1521" type="line"/>
    </contour>
  </outline>
</glyph>
